HIERARCHY
ROOT Hips
{
  OFFSET 0.0 0.0 0.0
  CHANNELS 6 XPOSITION YPOSITION ZPOSITION ZROTATION XROTATION YROTATION 
  JOINT RightUpLeg
  {
    OFFSET -0.089458038 -0.086670642 0.001016508
    CHANNELS 3 ZROTATION XROTATION YROTATION 
    JOINT RightLeg
    {
      OFFSET 1.524e-006 -0.44256706 0.04075049
      CHANNELS 3 ZROTATION XROTATION YROTATION 
      JOINT RightFoot
      {
        OFFSET 0.001562862 -0.419119812 -0.041630854
        CHANNELS 3 ZROTATION XROTATION YROTATION 
        End Site
        {
          OFFSET 7.5692e-005 -0.04415155 0.084991702
        }
      }
    }
  }
  JOINT Spine
  {
    OFFSET 0.0 0.11890502 0.0
    CHANNELS 3 ZROTATION XROTATION YROTATION 
    JOINT Spine1
    {
      OFFSET 0.0 0.256575052 0.001270508
      CHANNELS 3 ZROTATION XROTATION YROTATION 
      End Site
      {
        OFFSET -0.002899918 0.215084406 0.0252476
      }
      JOINT RightArm
      {
        OFFSET -0.16272758 -0.05365633 0.001021842
        CHANNELS 3 ZROTATION XROTATION YROTATION 
        JOINT RightForeArm
        {
          OFFSET -0.263648698 -0.000263906 -0.014099794
          CHANNELS 3 ZROTATION XROTATION YROTATION 
          End Site
          {
            OFFSET -0.220319092 0.001914652 0.010174732
          }
        }
      }
      JOINT LeftArm
      {
        OFFSET 0.16272758 -0.05365633 0.001020826
        CHANNELS 3 ZROTATION XROTATION YROTATION 
        JOINT LeftForeArm
        {
          OFFSET 0.26260552 -0.000263144 -0.01410081
          CHANNELS 3 ZROTATION XROTATION YROTATION 
          End Site
          {
            OFFSET 0.220897958 0.001915922 0.01017524
          }
        }
      }
    }
  }
  JOINT LeftUpLeg
  {
    OFFSET 0.089458038 -0.086670642 0.001016508
    CHANNELS 3 ZROTATION XROTATION YROTATION 
    JOINT LeftLeg
    {
      OFFSET -3.048e-006 -0.442569346 0.040725598
      CHANNELS 3 ZROTATION XROTATION YROTATION 
      JOINT LeftFoot
      {
        OFFSET -0.002532888 -0.41911778 -0.041605708
        CHANNELS 3 ZROTATION XROTATION YROTATION 
        End Site
        {
          OFFSET -0.00040005 -0.044151042 0.084991194
        }
      }
    }
  }
}
MOTION
Frames: 17
Frame Time: 0.033333
-0.04377944 0.987592290495 2.01148696 1.28922488627 1.32532766539 178.175005783 4.25976956551 -0.7769834836 0.373834369284 -0.926128828337 5.18175503034 -2.32470568355 -3.68915891366 -30.3597468984 0.26678465434 0.349997249205 -0.092198655873 0.309000399414 3.06524866718 2.25385997327 -0.341964546535 77.2152817368 -10.4126361963 7.43572044465 10.6374108917 24.998897051 -0.0274738639747 -83.3586885556 -12.708505248 -15.8480298746 -16.8322533038 51.0590313291 8.00920874058 0.898904121192 0.289105419063 1.46541868725 -0.143790289665 6.77184996299 -2.53076715472 3.47081249349 -33.0229401086 -0.139065773111 
-0.04377944 0.987592290495 2.01124566 1.30265794737 1.22635907809 178.147671366 4.25686246624 -0.883181185806 0.373844401125 -0.895535770715 5.20846107 -2.2896589157 -3.69026369676 -30.3850459191 0.266969629737 0.31462345937 -0.213697542625 0.27440191609 3.15665004521 2.31914441546 -0.396624869595 77.1824968288 -10.3954625394 7.50729655829 10.6723029131 25.0581574797 -0.112156348566 -83.4092046347 -12.7387945757 -15.8974975196 -16.82913703 51.0701952733 8.02171908582 0.911640396282 0.17114447692 1.45920652348 -0.133534613884 6.83551799823 -2.50612489941 3.48211197426 -33.084838698 -0.140118382636 
-0.04377944 0.987592290495 2.01054462 1.29973355919 1.12830072022 177.983009166 4.23933065131 -0.970279384576 0.373853605872 -0.860766906188 5.25125946222 -2.10925675769 -3.69942852996 -30.4341413189 0.268031777514 0.27754767177 -0.379295505732 0.27910612884 3.25830524473 2.44583588682 -0.414877963183 77.1558386005 -10.4558277513 7.63164954364 10.7468364986 25.2532720787 -0.356136015124 -83.4705465636 -12.6934045536 -15.9555302219 -16.8335185963 50.9346262636 8.00262785331 0.928917359788 0.136152870853 1.50730428873 -0.182207475725 6.82728249763 -2.39599983843 3.50302515972 -33.1439369098 -0.141884720248 
-0.04377944 0.987592290495 2.00949052 1.28197261275 1.13014497802 177.771669453 4.22070643299 -0.908880146084 0.378647651617 -0.867943567376 5.25771441788 -1.90311012259 -3.71506667496 -30.488738436 0.269690633028 0.26224682073 -0.426691789208 0.355409853957 3.29918648823 2.50025456526 -0.345829232986 77.1488786377 -10.5831168642 7.59807916387 10.7863747562 25.4477531775 -0.52891821666 -83.4980858864 -12.4900903125 -15.9182083607 -16.8854229114 50.6356893742 7.96382127977 0.962207381637 0.285785440198 1.62202019732 -0.301276949566 6.72249586982 -2.3071708804 3.51360426897 -33.1654349302 -0.14275572945 
-0.04377944 0.987592290495 2.008378 1.28658170978 1.14209087216 177.714350505 4.2430919511 -0.801679099761 0.413940519719 -0.911436451102 5.21459628742 -1.88369893841 -3.69636561701 -30.5344426468 0.268540333122 0.279258660838 -0.408488561338 0.429010905236 3.26235426625 2.45867429459 -0.262341509563 77.1446985619 -10.6069943518 7.29711797715 10.7191272749 25.3805082576 -0.340682632085 -83.4966310561 -12.2623743669 -15.8906058588 -16.9396716889 50.4782057025 7.94309250941 1.02850482626 0.417707128923 1.74084627898 -0.42188819187 6.65341960542 -2.37742065667 3.48547584242 -33.1893371772 -0.140524298644 
-0.04377944 0.987592290495 2.00743058 1.2950164598 1.06424805996 177.846528326 4.2672016651 -0.803476079843 0.442243489618 -0.94460310266 5.18173966242 -2.03753037989 -3.64085923095 -30.5773498952 0.264477624546 0.297252527402 -0.475886760314 0.427714743439 3.19001658652 2.45847664599 -0.249829963706 77.1567060345 -10.504696901 6.96800061624 10.6182086686 25.0650986595 0.0190985696211 -83.4925534331 -12.1577247698 -16.0398130487 -16.95036435 50.5708094072 7.95436146777 1.08624222958 0.380011901863 1.80233964601 -0.498285351841 6.66005257288 -2.57045759743 3.44703404367 -33.2162412923 -0.137579233131 
-0.04383024 0.987592290495 2.0066381 1.25778179026 0.947433042132 178.018225621 4.22267993077 -0.891976441744 0.416250431 -0.945112592083 5.2133788062 -2.17018183164 -3.60648160819 -30.6372540693 0.26220055687 0.241282942455 -0.613187703257 0.362820769289 3.19924822752 2.56626044619 -0.318219153761 77.2029464152 -10.4700055164 6.94420124896 10.6393148069 24.8222956798 0.0342656616786 -83.5219642277 -12.1571313971 -16.2923729537 -16.9248484708 50.6021599755 7.95890098225 1.07515736617 0.283358935454 1.80762215701 -0.550022700782 6.65426014558 -2.73856221328 3.46555346127 -33.2012387818 -0.138511727376 
-0.04391406 0.987592290495 2.00584054 1.18550632929 0.8965146222 178.114872798 4.13342429936 -0.923782231471 0.355046146384 -0.937046672282 5.27223283873 -2.20001204251 -3.61952897705 -30.7122495464 0.263683668416 0.116787803792 -0.649991697352 0.289818640223 3.33395343177 2.62803096949 -0.415537049757 77.266234948 -10.5944344877 7.16742378387 10.7799501095 24.8360926619 -0.349857603853 -83.5948286858 -12.1918731543 -16.3949350742 -16.8908682797 50.4163446792 7.93643649007 1.01020216044 0.281262440905 1.7916215851 -0.58937200756 6.61218105765 -2.81524111856 3.53793340279 -33.1583349486 -0.14346087978 
-0.04401312 0.987592290495 2.00489058 1.14151553544 0.910521739362 178.143259064 4.076165116 -0.853887785116 0.306334010955 -0.936217871515 5.2885779083 -2.18380080196 -3.63562901359 -30.7805446079 0.265500258611 0.0697997241707 -0.529794988834 0.248710639775 3.43386202385 2.49701534805 -0.471948142401 77.3129944231 -10.7244309168 7.25596011098 10.8495070484 24.9561025007 -0.598922372928 -83.6742569556 -12.2932254776 -16.3045563036 -16.8500903428 50.3693051663 7.93135312178 0.948268352923 0.359030574589 1.75993452327 -0.581313238113 6.59061558912 -2.81360827646 3.58484783777 -33.1526317406 -0.146198745101 
-0.04416552 0.987592290495 2.00378568 1.13202360021 0.91650840017 178.123656421 4.04806486398 -0.766691722542 0.266423854933 -0.924646997453 5.26928646588 -2.12729400663 -3.63435689086 -30.8384441215 0.265776774551 0.209569053457 -0.411395767325 0.26030670016 3.32561761278 2.31833162295 -0.44046051676 77.3395911797 -10.7382022857 7.1029664349 10.7477158855 25.0135990331 -0.424075773396 -83.7350934506 -12.4854987179 -16.2742268486 -16.7950134049 50.7469326652 7.97951363939 0.89294531475 0.446403261586 1.70075168117 -0.517794559905 6.56609521 -2.73173202411 3.57132662453 -33.1849317052 -0.144101863685 
-0.0443738 0.987592290495 2.00265538 1.11167774733 0.878498877686 178.065067059 4.00275893855 -0.740194483904 0.221318472934 -0.901817730482 5.27183668776 -2.02115308037 -3.65605981694 -30.9012408807 0.267815639379 0.439267474811 -0.478492584204 0.319411128493 3.09770914121 2.37575622495 -0.347598785589 77.361843936 -10.6969103771 7.02613961334 10.629171976 25.0294843456 -0.186184620173 -83.8104440975 -12.6580847916 -16.4648386453 -16.7394788443 51.2308105867 8.04248115335 0.82677374838 0.52188659027 1.6382679367 -0.460346372405 6.47727073428 -2.6022220325 3.5519854498 -33.2003371969 -0.141378512517 
-0.04448302 0.987592290495 2.0016343 1.08415283203 0.792535023927 178.037718981 3.97085042918 -0.783694464624 0.215720185754 -0.908525830021 5.3011381993 -1.98398916732 -3.701555707 -30.9680367157 0.269052437227 0.576025978005 -0.738484215208 0.374431103702 2.99403967621 2.68666643597 -0.286715146338 77.3718843141 -10.6600290631 7.2339395811 10.6507963549 25.0461414694 -0.217778407231 -83.9163120296 -12.7033382099 -16.7155595218 -16.7043699644 51.3396291606 8.05733766856 0.787182983743 0.535886823882 1.61587067919 -0.458223517594 6.39093799694 -2.54593188222 3.57494918612 -33.2034346876 -0.141981076608 
-0.0443484 0.987592290495 2.00072498 1.07970584527 0.664645654773 178.129475742 4.00401227827 -0.865589766794 0.278831827376 -0.962538965977 5.31244557747 -2.13065616724 -3.70155485323 -31.0197412477 0.267097962588 0.577676695989 -1.0088798785 0.362156133186 3.06612250451 2.93645349755 -0.322523480279 77.3568715583 -10.5888841052 7.49828156236 10.7323342994 25.027442119 -0.327224998306 -83.9624431273 -12.6416837998 -16.7545940529 -16.7078465307 51.087731784 8.02462020867 0.808300968161 0.435923697006 1.6292471778 -0.486030231562 6.40872082133 -2.64524197898 3.62860160271 -33.2402323318 -0.145029888959 
-0.04404614 0.987592290495 1.99985376 1.07868953446 0.539772027581 178.335023455 4.04632017753 -0.925584761081 0.329342970598 -1.01323689887 5.29119259009 -2.37090849819 -3.65271558557 -31.0546537597 0.261476103251 0.545032767346 -1.09168749118 0.274649857293 3.12625527652 2.88542173916 -0.422235330899 77.3536886901 -10.5032480471 7.57626353966 10.7333229693 24.9671588694 -0.268711247934 -83.8607825917 -12.5523560246 -16.5421171131 -16.75538977 50.8248548783 7.99020373921 0.834040536048 0.30817554735 1.62812350496 -0.497897898688 6.46162960108 -2.83854657778 3.69503543767 -33.2845261086 -0.149170651122 
-0.04377436 0.987630390495 1.99898762 1.03623467941 0.490847542639 178.572153963 4.01160061843 -0.896889642274 0.274733660513 -1.0072204627 5.25326412274 -2.53967436173 -3.65031861606 -31.0888559319 0.259468267759 0.560117293489 -0.990196002752 0.163024342492 3.04640524248 2.68289168924 -0.514964460351 77.4015819766 -10.4483042979 7.56765408621 10.6939486363 24.8930239962 -0.150259879532 -83.674017899 -12.4610534708 -16.2814514812 -16.8262529826 50.6984861334 7.97296092665 0.799194138203 0.306081827565 1.59182275707 -0.492905297209 6.41012698653 -3.02553239782 3.77087615066 -33.2745198814 -0.154057571432 
-0.04360418 0.987716750495 1.99813164 0.981190398331 0.520879831059 178.769245902 3.940649894 -0.776996717091 0.165915260079 -0.968902567849 5.19845612352 -2.62821773248 -3.73421937916 -31.1236455005 0.264235979924 0.621001759833 -0.906398866424 0.0886110856712 2.91049109474 2.63797209639 -0.564698429431 77.4632244339 -10.3623557587 7.64200923306 10.7050178116 24.8118659809 -0.101796812555 -83.5520785317 -12.3697807992 -16.1582997554 -16.8772283919 50.6305155059 7.96325608162 0.744637682042 0.428441304812 1.5592436085 -0.492914315193 6.28738848714 -3.17883983572 3.83964292212 -33.2353145956 -0.158292488821 
-0.04343654 0.987744690495 1.9972528 0.968937465847 0.557892786254 178.876848702 3.93554859646 -0.64689836871 0.128308171808 -0.964443521538 5.13989066648 -2.70659137844 -3.82218965435 -31.1517380685 0.269105104389 0.693673425137 -0.972398770931 0.0927133546496 2.85134122964 2.80336768846 -0.556966548569 77.4700068117 -10.2113633281 7.7371827965 10.7116157744 24.8181975663 -0.0288659369024 -83.5579456642 -12.3137741018 -16.179608238 -16.8843693547 50.60737824 7.96026531253 0.744321999236 0.54339635007 1.5683705555 -0.503488621967 6.22951287921 -3.28743279989 3.89071267343 -33.2432137094 -0.161415526118 
